<svg xmlns="http://www.w3.org/2000/svg" xmlns:xlink="http://www.w3.org/1999/xlink" version="1.1" x="0px" y="0px" viewBox="0 0 26.338 44.99625" enable-background="new 0 0 26.338 35.997" xml:space="preserve"><g><path fill="#000000" d="M4.364,26.054c-0.016-0.893,0.046-1.604,0.065-2.121c0.031-0.829,0.761-4.214,3.461-6.602L7.89,17.33   c-2.773-3.853-3.777-7.062-4.056-8.129c0.054-0.147,0.109-0.301,0.166-0.46C4.001,8.736,4.003,8.73,4.004,8.724   c0.434-1.21,0.965-2.689,1.587-3.514C5.983,4.692,6.409,4.455,6.86,4.796C6.959,4.87,7.099,4.851,7.174,4.752   C7.248,4.653,7.229,4.513,7.13,4.439C6.414,3.898,5.785,4.21,5.234,4.941c-0.717,0.95-1.256,2.521-1.657,3.65   C2.851,10.619,0.639,12.43,0.12,9.278C-0.478,5.649,1.16,1.965,5.236,2.36c2.85,0.276,6.803,9.162,7.484,12.698   c0.678-0.119,1.41-0.184,2.198-0.184c0.82,0,1.578,0.07,2.28,0.198c0.061-0.291,0.163-0.603,0.314-0.942   c1.73-3.863,3.277-7.428,0.767-11.456c-0.228-0.365-0.473-0.702-0.699-0.939c-0.272-0.286-0.542-0.441-0.772-0.372   c-0.051,0.015-0.099,0.04-0.142,0.076c-0.524,0.432-0.444,1.236-0.414,1.539c0.003,0.03,0.006,0.055,0.007,0.067   c0.005,0.123,0.11,0.219,0.233,0.213c0.123-0.006,0.219-0.111,0.213-0.234C16.704,3,16.701,2.971,16.698,2.934   c-0.024-0.236-0.086-0.86,0.244-1.143c0.05-0.002,0.165,0.096,0.315,0.253c0.203,0.213,0.429,0.525,0.642,0.867   c0.552,0.886,0.81,1.428,0.891,2.447c-0.256,0.904-0.871,2.17-2.067,0.186c-1.236-2.049-0.632-4.294-0.632-4.294   c0.484-0.785,2.695-2.629,6.162,0.544c5.272,4.826,4.639,12.435-0.255,15.582c2.659,2.386,3.38,5.734,3.41,6.558   c0.019,0.516,0.082,1.228,0.065,2.121c0.389,0.523,0.686,1.118,0.864,1.777c0,0-0.283,0.04-0.543-0.068   c0,0,0.341,0.466,0.298,2.036c0,0-0.379-0.325-0.412-0.249c-0.032,0.076,0.043,1.342-0.812,2.653c0,0-0.168-0.357-0.179-0.466   c0,0-0.179,0.79-1.38,1.982c0,0-0.152-0.325-0.13-0.509c0,0-0.747,0.855-2.295,1.375c-1.548,0.52-1.559,0.487-2.587,0.585   c-1.162,0.11-2.515,0.828-3.423,0.828c-0.908,0-2.047-0.706-3.334-0.828c-1.028-0.098-1.039-0.065-2.588-0.585   c-1.548-0.519-2.295-1.375-2.295-1.375c0.022,0.184-0.13,0.509-0.13,0.509c-1.202-1.191-1.38-1.982-1.38-1.982   c-0.011,0.109-0.179,0.466-0.179,0.466c-0.855-1.31-0.78-2.577-0.812-2.653c-0.032-0.076-0.411,0.249-0.411,0.249   c-0.043-1.57,0.298-2.036,0.298-2.036C3.783,27.872,3.5,27.832,3.5,27.832C3.678,27.172,3.975,26.577,4.364,26.054L4.364,26.054z    M12.344,30.908c0.145,0.597,0.59,2.163,1.284,2.273c0.451,0.071,0.713,0.089,0.88,0.046c0.137-0.036,0.214-0.123,0.299-0.267   v-3.569c-0.08,0.202-0.179,0.375-0.299,0.506c-0.451,0.489-1.185,0.871-2.101,1.003C12.386,30.903,12.365,30.905,12.344,30.908   L12.344,30.908z M13.593,33.402c-0.834-0.132-1.325-1.864-1.472-2.47c-0.711,0.06-1.521-0.028-2.386-0.323   c-0.117-0.04-0.18-0.167-0.14-0.283c0.039-0.117,0.167-0.18,0.283-0.14c0.912,0.31,1.753,0.373,2.466,0.271   c0.81-0.116,1.45-0.444,1.835-0.863c0.337-0.366,0.463-1.192,0.503-1.961c-0.012-0.225-0.018-0.444-0.019-0.645   c-0.652-0.585-1.879-1.63-2.256-2.421l-0.021,0.001c-2.888-1.304-7.269,0.438-7.949,2.723c0,0,0.227-0.033,0.453-0.128   c0,0-0.752,0.801-0.693,1.828c0,0,0.433-0.092,0.461-0.025c0.028,0.067-0.227,1.247,0.377,2.292c0,0,0.316-0.427,0.325-0.522   c0,0,0.044,0.971,1.087,2.02c0,0,0.259-0.373,0.24-0.535c1.785,1.735,2.373,1.935,4.437,2.178c0.978,0.115,2.752,0.878,3.748,0.878   c0.996,0,2.902-0.769,3.837-0.878c2.063-0.243,2.652-0.443,4.437-2.178c-0.019,0.162,0.24,0.535,0.24,0.535   c1.043-1.049,1.087-2.02,1.087-2.02c0.009,0.096,0.325,0.522,0.325,0.522c0.604-1.046,0.35-2.226,0.378-2.292   c0.029-0.067,0.461,0.025,0.461,0.025c0.06-1.027-0.692-1.828-0.692-1.828c0.226,0.095,0.453,0.128,0.453,0.128   c-0.679-2.284-5.06-4.026-7.949-2.723l-0.021-0.001c-0.384,0.804-1.647,1.872-2.29,2.451c-0.001,0.192-0.007,0.401-0.019,0.615   c0.039,0.769,0.166,1.595,0.503,1.961c0.385,0.418,1.025,0.747,1.835,0.863c0.713,0.103,1.553,0.04,2.465-0.271   c0.117-0.04,0.244,0.023,0.284,0.14c0.04,0.117-0.023,0.244-0.14,0.283c-0.852,0.29-1.649,0.379-2.353,0.326   c-0.148,0.608-0.639,2.335-1.472,2.467c-0.482,0.077-0.77,0.093-0.971,0.041c-0.162-0.043-0.264-0.123-0.355-0.246   c-0.09,0.123-0.192,0.203-0.354,0.246C14.363,33.495,14.076,33.479,13.593,33.402L13.593,33.402z M16.209,33.181   c0.692-0.11,1.137-1.669,1.283-2.269c-0.032-0.004-0.064-0.008-0.095-0.013c-0.916-0.132-1.651-0.514-2.101-1.003   c-0.104-0.113-0.192-0.258-0.265-0.425v3.489c0.085,0.144,0.162,0.231,0.299,0.267C15.497,33.27,15.758,33.253,16.209,33.181   L16.209,33.181z M9.779,21.883c0.208-0.876,1.078-1.406,1.942-1.183c0.864,0.222,1.395,1.112,1.187,1.988   c-0.131,0.55-0.522,0.963-1.008,1.14c0.143,0.042,0.285,0.088,0.427,0.138c0.316-0.832,1.595-0.41,2.592-0.41   c0.998,0,2.277-0.422,2.593,0.41c0.148-0.053,0.297-0.1,0.447-0.143c-0.769-0.285-1.223-1.118-1.027-1.939   c0.208-0.876,1.078-1.406,1.942-1.183c0.864,0.222,1.395,1.112,1.187,1.988c-0.083,0.35-0.272,0.644-0.523,0.857   c0.63-0.043,1.256-0.007,1.86,0.102c1.274-3.98-4.519-7.67-6.477-1.874c-2.098-5.269-7.927-1.447-6.477,1.874   c0.613-0.111,1.25-0.146,1.891-0.1C9.864,23.157,9.628,22.516,9.779,21.883L9.779,21.883z M12.046,21.176   c0.314,0,0.569,0.251,0.569,0.561c0,0.31-0.255,0.56-0.569,0.56c-0.315,0-0.569-0.251-0.569-0.56   C11.477,21.427,11.731,21.176,12.046,21.176z M19.198,21.176c0.314,0,0.569,0.251,0.569,0.561c0,0.31-0.255,0.56-0.569,0.56   c-0.315,0-0.569-0.251-0.569-0.56C18.629,21.427,18.883,21.176,19.198,21.176z M14.919,24.227   c-1.052-0.049-1.877-0.625-2.102-0.296c-0.215,0.315,0.043,0.843,0.19,1.083c0.311-0.952,0.853,1.414,1.911,1.414   c1.145,0,1.618-2.412,1.963-1.358c0.209-0.297,0.423-0.864,0.285-1.078C16.917,23.605,16.008,24.176,14.919,24.227z"/></g><text x="0" y="50.997" fill="#000000" font-size="5px" font-weight="bold" font-family="'Helvetica Neue', Helvetica, Arial-Unicode, Arial, Sans-serif">Created by Roman Zayats</text><text x="0" y="55.997" fill="#000000" font-size="5px" font-weight="bold" font-family="'Helvetica Neue', Helvetica, Arial-Unicode, Arial, Sans-serif">from the Noun Project</text></svg>