<?xml version="1.0" encoding="UTF-8"?>
<svg width="500px" height="500px" viewBox="0 0 500 500" version="1.1" xmlns="http://www.w3.org/2000/svg" xmlns:xlink="http://www.w3.org/1999/xlink">
    <!-- Generator: Sketch 40.3 (33839) - http://www.bohemiancoding.com/sketch -->
    <title>logo</title>
    <desc>Created with Sketch.</desc>
    <defs></defs>
    <g id="Page-1" stroke="none" stroke-width="1" fill="none" fill-rule="evenodd">
        <g id="logo">
            <path d="M250,500 C388.071187,500 500,388.071187 500,250 C500,111.928813 388.071187,0 250,0 C111.928813,0 0,111.928813 0,250 C0,388.071187 111.928813,500 250,500 Z M114.127432,311.52 L114.387432,311.52 C114.907435,309.873325 115.774093,308.053343 116.987432,306.06 C118.200772,304.066657 119.804089,302.225008 121.797432,300.535 C123.790776,298.844992 126.195752,297.436672 129.012432,296.31 C131.829113,295.183328 135.057414,294.62 138.697432,294.62 C143.810791,294.62 148.252414,295.573324 152.022432,297.48 C155.792451,299.386676 158.91242,301.943317 161.382432,305.15 C163.852445,308.356683 165.694093,312.083312 166.907432,316.33 C168.120772,320.576688 168.727432,325.039977 168.727432,329.72 C168.727432,334.833359 168.120772,339.513312 166.907432,343.76 C165.694093,348.006688 163.852445,351.668318 161.382432,354.745 C158.91242,357.821682 155.792451,360.226658 152.022432,361.96 C148.252414,363.693342 143.810791,364.56 138.697432,364.56 C133.150738,364.56 128.210787,363.346679 123.877432,360.92 C119.544077,358.493321 116.380776,354.550027 114.387432,349.09 L114.127432,349.09 L114.127432,386.92 L109.187432,386.92 L109.187432,296.18 L114.127432,296.18 L114.127432,311.52 Z M138.697432,360.27 C143.030787,360.27 146.779083,359.446675 149.942432,357.8 C153.105782,356.153325 155.705756,353.943347 157.742432,351.17 C159.779109,348.396653 161.295761,345.168352 162.292432,341.485 C163.289104,337.801648 163.787432,333.880021 163.787432,329.72 C163.787432,325.906648 163.310771,322.158352 162.357432,318.475 C161.404094,314.791648 159.930776,311.498348 157.937432,308.595 C155.944089,305.691652 153.365782,303.351676 150.202432,301.575 C147.039083,299.798324 143.204122,298.91 138.697432,298.91 C134.27741,298.91 130.507448,299.776658 127.387432,301.51 C124.267417,303.243342 121.732442,305.539986 119.782432,308.4 C117.832423,311.260014 116.424103,314.531648 115.557432,318.215 C114.690761,321.898352 114.257432,325.733313 114.257432,329.72 C114.257432,333.706687 114.647429,337.541648 115.427432,341.225 C116.207436,344.908352 117.52909,348.158319 119.392432,350.975 C121.255775,353.791681 123.769083,356.044992 126.932432,357.735 C130.095782,359.425008 134.017409,360.27 138.697432,360.27 Z M185.237432,311 L185.627432,311 C186.234102,308.833322 187.339091,306.796676 188.942432,304.89 C190.545774,302.983324 192.495754,301.336674 194.792432,299.95 C197.089111,298.563326 199.645752,297.50167 202.462432,296.765 C205.279113,296.02833 208.204084,295.703333 211.237432,295.79 L211.237432,300.73 C208.637419,300.383332 205.669116,300.643329 202.332432,301.51 C198.995749,302.376671 195.810781,304.283319 192.777432,307.23 C191.564093,308.530006 190.502437,309.786661 189.592432,311 C188.682428,312.213339 187.924102,313.556659 187.317432,315.03 C186.710763,316.503341 186.234101,318.149991 185.887432,319.97 C185.540764,321.790009 185.3241,323.956654 185.237432,326.47 L185.237432,363 L180.297432,363 L180.297432,296.18 L185.237432,296.18 L185.237432,311 Z M216.827432,330.24 L216.827432,331.02 C216.827432,334.920019 217.347427,338.646649 218.387432,342.2 C219.427438,345.753351 220.965756,348.87332 223.002432,351.56 C225.039109,354.24668 227.59575,356.369992 230.672432,357.93 C233.749114,359.490008 237.324079,360.27 241.397432,360.27 C248.070799,360.27 253.357413,358.515018 257.257432,355.005 C261.157452,351.494982 263.844092,346.620031 265.317432,340.38 L270.257432,340.38 C268.784092,348.180039 265.599124,354.159979 260.702432,358.32 C255.805741,362.480021 249.327473,364.56 241.267432,364.56 C236.327408,364.56 232.015784,363.671676 228.332432,361.895 C224.649081,360.118324 221.572445,357.691682 219.102432,354.615 C216.63242,351.538318 214.790772,347.898354 213.577432,343.695 C212.364093,339.491646 211.757432,334.963358 211.757432,330.11 C211.757432,325.429977 212.385759,320.945021 213.642432,316.655 C214.899105,312.364979 216.784087,308.595016 219.297432,305.345 C221.810778,302.094984 224.952414,299.49501 228.722432,297.545 C232.492451,295.59499 236.934074,294.62 242.047432,294.62 C246.727456,294.62 250.865748,295.486658 254.462432,297.22 C258.059117,298.953342 261.070754,301.314985 263.497432,304.305 C265.924111,307.295015 267.765759,310.761647 269.022432,314.705 C270.279105,318.648353 270.907432,322.873311 270.907432,327.38 C270.907432,327.813335 270.885766,328.311664 270.842432,328.875 C270.799099,329.438336 270.777432,329.893332 270.777432,330.24 L216.827432,330.24 Z M265.837432,325.95 C265.664098,322.309982 265.057438,318.865016 264.017432,315.615 C262.977427,312.364984 261.439109,309.505012 259.402432,307.035 C257.365756,304.564988 254.89578,302.593341 251.992432,301.12 C249.089085,299.646659 245.774118,298.91 242.047432,298.91 C238.060746,298.91 234.550781,299.668326 231.517432,301.185 C228.484084,302.701674 225.927443,304.694988 223.847432,307.165 C221.767422,309.635012 220.164105,312.51665 219.037432,315.81 C217.91076,319.10335 217.217434,322.483316 216.957432,325.95 L265.837432,325.95 Z M284.687432,340.77 C284.860767,343.890016 285.554093,346.641655 286.767432,349.025 C287.980772,351.408345 289.562423,353.444992 291.512432,355.135 C293.462442,356.825008 295.737419,358.103329 298.337432,358.97 C300.937445,359.836671 303.754084,360.27 306.787432,360.27 C308.95411,360.27 311.27242,360.075002 313.742432,359.685 C316.212445,359.294998 318.509088,358.580005 320.632432,357.54 C322.755776,356.499995 324.510759,355.048343 325.897432,353.185 C327.284106,351.321657 327.977432,348.960014 327.977432,346.1 C327.977432,342.373315 326.850777,339.556676 324.597432,337.65 C322.344088,335.743324 319.505783,334.270005 316.082432,333.23 C312.659082,332.189995 308.975785,331.345003 305.032432,330.695 C301.089079,330.044997 297.405783,329.070006 293.982432,327.77 C290.559082,326.469993 287.720777,324.628345 285.467432,322.245 C283.214088,319.861655 282.087432,316.373356 282.087432,311.78 C282.087432,308.48665 282.824092,305.735011 284.297432,303.525 C285.770773,301.314989 287.655754,299.560006 289.952432,298.26 C292.249111,296.959993 294.827418,296.028336 297.687432,295.465 C300.547447,294.901664 303.407418,294.62 306.267432,294.62 C309.734116,294.62 312.984084,295.009996 316.017432,295.79 C319.050781,296.570004 321.672421,297.826658 323.882432,299.56 C326.092443,301.293342 327.825759,303.50332 329.082432,306.19 C330.339105,308.87668 330.967432,312.126648 330.967432,315.94 L326.027432,315.94 C326.027432,312.906651 325.529104,310.306677 324.532432,308.14 C323.535761,305.973322 322.149108,304.21834 320.372432,302.875 C318.595757,301.53166 316.494111,300.535003 314.067432,299.885 C311.640754,299.234997 309.04078,298.91 306.267432,298.91 C304.014088,298.91 301.739111,299.126664 299.442432,299.56 C297.145754,299.993335 295.087442,300.729995 293.267432,301.77 C291.447423,302.810005 289.952438,304.153325 288.782432,305.8 C287.612427,307.446675 287.027432,309.439988 287.027432,311.78 C287.027432,314.46668 287.677426,316.633325 288.977432,318.28 C290.277439,319.926675 291.989088,321.248328 294.112432,322.245 C296.235776,323.241672 298.619086,324.04333 301.262432,324.65 C303.905779,325.25667 306.570752,325.86333 309.257432,326.47 C312.550782,327.07667 315.649085,327.791663 318.552432,328.615 C321.45578,329.438337 323.969088,330.564993 326.092432,331.995 C328.215776,333.425007 329.884093,335.266655 331.097432,337.52 C332.310772,339.773345 332.917432,342.633316 332.917432,346.1 C332.917432,349.740018 332.094107,352.729988 330.447432,355.07 C328.800758,357.410012 326.720778,359.294993 324.207432,360.725 C321.694087,362.155007 318.899114,363.151664 315.822432,363.715 C312.74575,364.278336 309.734114,364.56 306.787432,364.56 C302.97408,364.56 299.442449,364.061672 296.192432,363.065 C292.942416,362.068328 290.104111,360.551677 287.677432,358.515 C285.250754,356.478323 283.344106,353.986681 281.957432,351.04 C280.570759,348.093319 279.8341,344.670019 279.747432,340.77 L284.687432,340.77 Z M347.217432,340.77 C347.390767,343.890016 348.084093,346.641655 349.297432,349.025 C350.510772,351.408345 352.092423,353.444992 354.042432,355.135 C355.992442,356.825008 358.267419,358.103329 360.867432,358.97 C363.467445,359.836671 366.284084,360.27 369.317432,360.27 C371.48411,360.27 373.80242,360.075002 376.272432,359.685 C378.742445,359.294998 381.039088,358.580005 383.162432,357.54 C385.285776,356.499995 387.040759,355.048343 388.427432,353.185 C389.814106,351.321657 390.507432,348.960014 390.507432,346.1 C390.507432,342.373315 389.380777,339.556676 387.127432,337.65 C384.874088,335.743324 382.035783,334.270005 378.612432,333.23 C375.189082,332.189995 371.505785,331.345003 367.562432,330.695 C363.619079,330.044997 359.935783,329.070006 356.512432,327.77 C353.089082,326.469993 350.250777,324.628345 347.997432,322.245 C345.744088,319.861655 344.617432,316.373356 344.617432,311.78 C344.617432,308.48665 345.354092,305.735011 346.827432,303.525 C348.300773,301.314989 350.185754,299.560006 352.482432,298.26 C354.779111,296.959993 357.357418,296.028336 360.217432,295.465 C363.077447,294.901664 365.937418,294.62 368.797432,294.62 C372.264116,294.62 375.514084,295.009996 378.547432,295.79 C381.580781,296.570004 384.202421,297.826658 386.412432,299.56 C388.622443,301.293342 390.355759,303.50332 391.612432,306.19 C392.869105,308.87668 393.497432,312.126648 393.497432,315.94 L388.557432,315.94 C388.557432,312.906651 388.059104,310.306677 387.062432,308.14 C386.065761,305.973322 384.679108,304.21834 382.902432,302.875 C381.125757,301.53166 379.024111,300.535003 376.597432,299.885 C374.170754,299.234997 371.57078,298.91 368.797432,298.91 C366.544088,298.91 364.269111,299.126664 361.972432,299.56 C359.675754,299.993335 357.617442,300.729995 355.797432,301.77 C353.977423,302.810005 352.482438,304.153325 351.312432,305.8 C350.142427,307.446675 349.557432,309.439988 349.557432,311.78 C349.557432,314.46668 350.207426,316.633325 351.507432,318.28 C352.807439,319.926675 354.519088,321.248328 356.642432,322.245 C358.765776,323.241672 361.149086,324.04333 363.792432,324.65 C366.435779,325.25667 369.100752,325.86333 371.787432,326.47 C375.080782,327.07667 378.179085,327.791663 381.082432,328.615 C383.98578,329.438337 386.499088,330.564993 388.622432,331.995 C390.745776,333.425007 392.414093,335.266655 393.627432,337.52 C394.840772,339.773345 395.447432,342.633316 395.447432,346.1 C395.447432,349.740018 394.624107,352.729988 392.977432,355.07 C391.330758,357.410012 389.250778,359.294993 386.737432,360.725 C384.224087,362.155007 381.429114,363.151664 378.352432,363.715 C375.27575,364.278336 372.264114,364.56 369.317432,364.56 C365.50408,364.56 361.972449,364.061672 358.722432,363.065 C355.472416,362.068328 352.634111,360.551677 350.207432,358.515 C347.780754,356.478323 345.874106,353.986681 344.487432,351.04 C343.100759,348.093319 342.3641,344.670019 342.277432,340.77 L347.217432,340.77 Z M183.832432,170.1 L200.032432,170.1 C199.792431,163.019965 198.442445,156.930026 195.982432,151.83 C193.52242,146.729975 190.162454,142.500017 185.902432,139.14 C181.642411,135.779983 176.692461,133.320008 171.052432,131.76 C165.412404,130.199992 159.292465,129.42 152.692432,129.42 C146.812403,129.42 141.08246,130.169993 135.502432,131.67 C129.922405,133.170008 124.942454,135.449985 120.562432,138.51 C116.182411,141.570015 112.672446,145.469976 110.032432,150.21 C107.392419,154.950024 106.072432,160.559968 106.072432,167.04 C106.072432,172.920029 107.242421,177.809981 109.582432,181.71 C111.922444,185.61002 115.042413,188.789988 118.942432,191.25 C122.842452,193.710012 127.252408,195.689993 132.172432,197.19 C137.092457,198.690008 142.102407,200.009994 147.202432,201.15 C152.302458,202.290006 157.312408,203.399995 162.232432,204.48 C167.152457,205.560005 171.562413,206.969991 175.462432,208.71 C179.362452,210.450009 182.482421,212.699986 184.822432,215.46 C187.162444,218.220014 188.332432,221.819978 188.332432,226.26 C188.332432,230.940023 187.372442,234.779985 185.452432,237.78 C183.532423,240.780015 181.012448,243.149991 177.892432,244.89 C174.772417,246.630009 171.262452,247.859996 167.362432,248.58 C163.462413,249.300004 159.592452,249.66 155.752432,249.66 C150.952408,249.66 146.272455,249.060006 141.712432,247.86 C137.15241,246.659994 133.16245,244.800013 129.742432,242.28 C126.322415,239.759987 123.562443,236.55002 121.462432,232.65 C119.362422,228.749981 118.312432,224.100027 118.312432,218.7 L102.112432,218.7 C102.112432,226.500039 103.522418,233.249972 106.342432,238.95 C109.162447,244.650029 113.002408,249.329982 117.862432,252.99 C122.722457,256.650018 128.3624,259.379991 134.782432,261.18 C141.202465,262.980009 148.012396,263.88 155.212432,263.88 C161.092462,263.88 167.002403,263.190007 172.942432,261.81 C178.882462,260.429993 184.252408,258.210015 189.052432,255.15 C193.852456,252.089985 197.782417,248.130024 200.842432,243.27 C203.902448,238.409976 205.432432,232.560034 205.432432,225.72 C205.432432,219.359968 204.262444,214.080021 201.922432,209.88 C199.582421,205.679979 196.462452,202.200014 192.562432,199.44 C188.662413,196.679986 184.252457,194.490008 179.332432,192.87 C174.412408,191.249992 169.402458,189.840006 164.302432,188.64 C159.202407,187.439994 154.192457,186.330005 149.272432,185.31 C144.352408,184.289995 139.942452,183.000008 136.042432,181.44 C132.142413,179.879992 129.022444,177.870012 126.682432,175.41 C124.342421,172.949988 123.172432,169.74002 123.172432,165.78 C123.172432,161.579979 123.982424,158.070014 125.602432,155.25 C127.222441,152.429986 129.382419,150.180008 132.082432,148.5 C134.782446,146.819992 137.872415,145.620004 141.352432,144.9 C144.83245,144.179996 148.372414,143.82 151.972432,143.82 C160.852477,143.82 168.142404,145.889979 173.842432,150.03 C179.542461,154.170021 182.872428,160.859954 183.832432,170.1 Z M239.812432,151.2 L239.812432,132.48 L224.512432,132.48 L224.512432,151.2 L239.812432,151.2 Z M224.512432,167.94 L224.512432,261 L239.812432,261 L239.812432,167.94 L224.512432,167.94 Z M284.812432,167.94 L284.812432,140.04 L269.512432,140.04 L269.512432,167.94 L253.672432,167.94 L253.672432,181.44 L269.512432,181.44 L269.512432,240.66 C269.512432,244.980022 269.932428,248.459987 270.772432,251.1 C271.612437,253.740013 272.902424,255.779993 274.642432,257.22 C276.382441,258.660007 278.662418,259.649997 281.482432,260.19 C284.302447,260.730003 287.692413,261 291.652432,261 L303.352432,261 L303.352432,247.5 L296.332432,247.5 C293.93242,247.5 291.98244,247.410001 290.482432,247.23 C288.982425,247.049999 287.812437,246.660003 286.972432,246.06 C286.132428,245.459997 285.562434,244.620005 285.262432,243.54 C284.962431,242.459995 284.812432,241.020009 284.812432,239.22 L284.812432,181.44 L303.352432,181.44 L303.352432,167.94 L284.812432,167.94 Z M384.892432,205.56 L331.432432,205.56 C331.672434,201.959982 332.452426,198.570016 333.772432,195.39 C335.092439,192.209984 336.892421,189.420012 339.172432,187.02 C341.452444,184.619988 344.182417,182.730007 347.362432,181.35 C350.542448,179.969993 354.112413,179.28 358.072432,179.28 C361.912452,179.28 365.422417,179.969993 368.602432,181.35 C371.782448,182.730007 374.542421,184.589988 376.882432,186.93 C379.222444,189.270012 381.082426,192.059984 382.462432,195.3 C383.842439,198.540016 384.652431,201.959982 384.892432,205.56 Z M399.652432,231.48 L384.532432,231.48 C383.212426,237.600031 380.482453,242.159985 376.342432,245.16 C372.202412,248.160015 366.892465,249.66 360.412432,249.66 C355.372407,249.66 350.992451,248.820008 347.272432,247.14 C343.552414,245.459992 340.492444,243.210014 338.092432,240.39 C335.69242,237.569986 333.952438,234.330018 332.872432,230.67 C331.792427,227.009982 331.312432,223.14002 331.432432,219.06 L401.092432,219.06 C401.332434,213.419972 400.822439,207.480031 399.562432,201.24 C398.302426,194.999969 396.022449,189.240026 392.722432,183.96 C389.422416,178.679974 385.04246,174.330017 379.582432,170.91 C374.122405,167.489983 367.252474,165.78 358.972432,165.78 C352.612401,165.78 346.762459,166.979988 341.422432,169.38 C336.082406,171.780012 331.462452,175.139978 327.562432,179.46 C323.662413,183.780022 320.632443,188.879971 318.472432,194.76 C316.312422,200.640029 315.232432,207.119965 315.232432,214.2 C315.472434,221.280035 316.522423,227.81997 318.382432,233.82 C320.242442,239.82003 323.032414,244.979978 326.752432,249.3 C330.472451,253.620022 335.062405,256.979988 340.522432,259.38 C345.98246,261.780012 352.432395,262.98 359.872432,262.98 C370.432485,262.98 379.192398,260.340026 386.152432,255.06 C393.112467,249.779974 397.612422,241.920052 399.652432,231.48 Z" id="Combined-Shape" fill="#000000"></path>
            <g id="Group" transform="translate(102.000000, 129.000000)"></g>
        </g>
    </g>
</svg>
