<svg id="Layer_1" data-name="Layer 1" xmlns="http://www.w3.org/2000/svg" viewBox="0 0 1000 1000"><title>black-solid</title><path d="M404.72,589.93c-8.9-7.33-21.31-11.05-36.89-11.05H324.05V670.4h43.79c15.57,0,28-3.77,36.88-11.2s13.29-19,13.29-34.71S413.54,597.2,404.72,589.93Z"/><path d="M929.29,326.59a446.94,446.94,0,1,0,35,173.41A444,444,0,0,0,929.29,326.59ZM643.53,207.3c0-4.6,2.64-7.24,7.24-7.24H754.32c4.41,0,6.95,2.53,6.95,6.95,0,4.78-2.53,7.53-6.95,7.53H658V301h44.54c4.41,0,6.94,2.74,6.94,7.53,0,4.41-2.53,6.95-6.94,6.95H658v86.75h96.32c4.41,0,6.95,2.74,6.95,7.53,0,4.41-2.53,6.95-6.95,6.95H650.77c-4.6,0-7.24-2.64-7.24-7.24Zm-172-66a6.32,6.32,0,0,1,4.9-2.07H623.75q6.78,0,6.78,6.41,0,7.16-6.78,7.16H557.06V407.91q0,6.78-6.78,6.78t-6.78-6.78V152.83H476.43a6.3,6.3,0,0,1-4.9-2.07,6.83,6.83,0,0,1,0-9.42Zm-40.45,4.33q0-6.4,6.78-6.41t6.78,6.41V407.91q0,6.78-6.78,6.78t-6.78-6.78Zm-152.51,236c1.58-1.84,3.13-2.74,4.72-2.74s3.5,1.35,6.2,4.66c2.13,2.61,4.6,5.47,7.35,8.5,2.58,2.86,7.13,5.57,13.5,8.06A62.35,62.35,0,0,0,333,404c15.29,0,27-3.87,34.82-11.5s11.76-18.93,11.76-33.62c0-9.71-1.73-18-5.15-24.53a37.43,37.43,0,0,0-13.38-14.93,102,102,0,0,0-18.83-9l-20.64-7.27A93.89,93.89,0,0,1,302,294.08a41.71,41.71,0,0,1-14.82-16.17c-3.73-6.94-5.62-15.53-5.62-25.52,0-10.16,1.88-19,5.6-26.36a38,38,0,0,1,15.36-16.55,71.08,71.08,0,0,1,18.71-7.33,89.53,89.53,0,0,1,19.64-2.08,98.74,98.74,0,0,1,32.36,5.06c10.64,3.7,15.6,7.53,15.6,12.07a8.78,8.78,0,0,1-2.18,5.47c-1.56,1.95-3.26,2.93-5.05,2.93-.82,0-2.11-.23-7.09-3a72.4,72.4,0,0,0-13.71-5.36,70.4,70.4,0,0,0-20.22-2.68,75.17,75.17,0,0,0-21.39,2.83c-6.07,1.81-11.52,5.65-16.18,11.41s-7,13.36-7,22.74c0,7.92,1.71,14.66,5.08,20a33,33,0,0,0,13.31,12.22,148.66,148.66,0,0,0,18.8,7.75c6.86,2.32,13.89,4.93,20.9,7.75a98.19,98.19,0,0,1,19.6,10.54c6.08,4.26,11.06,10.55,14.78,18.7s5.56,18,5.56,29.48c0,20.26-5.45,35.58-16.2,45.54s-25.31,14.93-43.39,14.93a83.61,83.61,0,0,1-24.88-3.58c-7.64-2.38-13.85-5.26-18.46-8.57a49.87,49.87,0,0,1-10.75-10c-2.72-3.58-4-6.6-4-9.21A8.24,8.24,0,0,1,278.58,381.69ZM198.83,505.11l168.13-40a6.5,6.5,0,0,1,7.74,8.17L366,502.51l157.2-37.4a6.5,6.5,0,0,1,7.74,8.17l-8.67,29.23,157.2-37.4a6.5,6.5,0,0,1,7.74,8.17l-8.67,29.23,157.2-37.4a6.5,6.5,0,1,1,3,12.65l-168.13,40a6.5,6.5,0,0,1-7.74-8.17l8.67-29.23-157.2,37.4a6.5,6.5,0,0,1-7.74-8.17l8.67-29.23-157.2,37.4a6.5,6.5,0,0,1-7.74-8.17L359,480.36l-157.2,37.4a6.59,6.59,0,0,1-1.51.18,6.5,6.5,0,0,1-1.5-12.83Zm90.53,115.27c0,18.28-4.72,32-14,40.65s-21.68,13-36.95,13H201.51v68.81c0,4.33-2.59,6.92-6.92,6.92s-6.92-2.59-6.92-6.92V570.64c0-1.78.65-6,6.64-6.66l.27,0h43.8c15.25,0,27.68,4.34,36.94,12.91s14,22.25,14,40.54ZM430.87,779.12a9.08,9.08,0,0,1,1.08,4,6.71,6.71,0,0,1-7,7,6,6,0,0,1-3-.81,8.3,8.3,0,0,1-2.61-2.57c-.72-1-1.28-1.84-1.69-2.46l-.16-.32-1.18-3.26c-.4-.78-.66-1.25-.82-1.53h-.23l-.42-.82-48.21-94H324.05v98.8c0,4.5-2.48,7-7,7s-7-2.48-7-7V571.6c0-2.2.88-6,6.81-6.66h50.92c18.9,0,34.45,4.71,46.22,14s17.89,24.7,17.89,45.55c0,34.44-16.91,54.27-50.25,59ZM529,696.64q6.37,0,6.38,7.13,0,6.38-6.38,6.38H469V827.22H595.79q6.38,0,6.38,7.13,0,6.38-6.38,6.38H462.2q-6.75,0-6.75-6.75V573.19q0-6.75,6.75-6.75H595.79q6.38,0,6.38,6.38,0,7.13-6.38,7.13H469v116.7Zm184.77,79.85c-11.08,10.25-26.2,15.44-44.94,15.44A86.87,86.87,0,0,1,643,788.22c-7.92-2.47-14.35-5.46-19.12-8.88A51.44,51.44,0,0,1,612.77,769c-2.76-3.64-4.1-6.67-4.1-9.26a8,8,0,0,1,2.18-5.23c1.54-1.79,3-2.65,4.48-2.65s3.36,1.39,6,4.65c2.24,2.75,4.83,5.75,7.7,8.91s7.58,5.94,14.33,8.58,14.83,4,23.92,4c16.13,0,28.51-4.1,36.79-12.19s12.46-20,12.46-35.55c0-10.24-1.83-19-5.45-25.9a39.7,39.7,0,0,0-14.2-15.83,107.13,107.13,0,0,0-19.78-9.44l-21.57-7.59a97.59,97.59,0,0,1-20.35-9.41,43,43,0,0,1-15.28-16.68c-3.85-7.17-5.8-16.05-5.8-26.39,0-10.53,1.95-19.7,5.78-27.27s9.18-13.36,15.81-17a73.67,73.67,0,0,1,19.39-7.6,92.94,92.94,0,0,1,20.39-2.16,102.6,102.6,0,0,1,33.62,5.25C720,574,725,577.78,725,582.24a8.62,8.62,0,0,1-2.15,5.34c-1.51,1.89-3.13,2.84-4.82,2.84-.84,0-2.28-.37-7.12-3.08a76.36,76.36,0,0,0-14.44-5.65,74.19,74.19,0,0,0-21.3-2.82,79.11,79.11,0,0,0-22.52,3c-6.46,1.93-12.25,6-17.19,12.12s-7.42,14.2-7.42,24.13c0,8.4,1.81,15.54,5.39,21.24a35,35,0,0,0,14.14,13,155.74,155.74,0,0,0,19.72,8.13c7.17,2.42,14.5,5.14,21.81,8.08a101.94,101.94,0,0,1,20.36,11c6.27,4.39,11.4,10.88,15.25,19.3s5.76,18.65,5.76,30.56C730.51,750.35,724.87,766.21,713.76,776.49Zm122.15-38.11c-9.25,8.56-21.85,12.91-37.43,12.91a71.87,71.87,0,0,1-21.4-3.08,56.18,56.18,0,0,1-15.92-7.4,43.15,43.15,0,0,1-9.31-8.68c-2.42-3.19-3.59-5.9-3.59-8.29a7.75,7.75,0,0,1,2.08-5.07c1.5-1.75,3-2.59,4.59-2.59s3.41,1.23,5.87,4.25c1.81,2.22,3.9,4.64,6.23,7.2,2.12,2.34,5.88,4.58,11.2,6.66a52.27,52.27,0,0,0,19,3.17c12.8,0,22.58-3.22,29.09-9.57s9.77-15.77,9.77-28.06c0-8.13-1.45-15-4.3-20.51A31.11,31.11,0,0,0,820.7,666.9a86.11,86.11,0,0,0-15.88-7.57l-17.55-6.18a80.5,80.5,0,0,1-16.81-7.77,36.25,36.25,0,0,1-12.88-14c-3.23-6-4.87-13.45-4.87-22.08s1.63-16.43,4.84-22.77a33.09,33.09,0,0,1,13.38-14.4,61.27,61.27,0,0,1,16.12-6.31A77,77,0,0,1,803.93,564a84.76,84.76,0,0,1,27.78,4.34c9.4,3.27,13.78,6.76,13.78,11a8.21,8.21,0,0,1-2,5.13c-1.47,1.84-3.12,2.78-4.89,2.78-.83,0-2-.21-6.4-2.67a60.85,60.85,0,0,0-11.51-4.49,59.12,59.12,0,0,0-17-2.25,63.22,63.22,0,0,0-18,2.37,27.39,27.39,0,0,0-13.39,9.46c-3.82,4.72-5.76,11.07-5.76,18.86,0,6.6,1.41,12.19,4.2,16.63a27.29,27.29,0,0,0,11,10.12,125.79,125.79,0,0,0,15.9,6.55c5.86,2,11.86,4.21,17.82,6.61a84.24,84.24,0,0,1,16.83,9.05c5.29,3.7,9.6,9.16,12.83,16.21s4.8,15.52,4.8,25.4C849.95,716.54,845.23,729.76,835.92,738.38Z"/><path d="M238.39,577.81H201.51v82.43h36.88c11.95,0,21.22-3.33,27.55-9.89s9.58-16.67,9.58-30v-3c0-13.29-3.22-23.32-9.57-29.83S250.34,577.81,238.39,577.81Z"/></svg>