<svg viewBox="0 0 300 89" xmlns="http://www.w3.org/2000/svg" fill-rule="evenodd" clip-rule="evenodd" stroke-linejoin="round" stroke-miterlimit="2"><path d="M66.515 11.749h10.953c9.742 0 17.651 7.91 17.651 17.652v38.513c0 9.742-7.909 17.651-17.651 17.651h-.863c-5.014-.784-7.189-2.288-8.869-3.559L53.811 70.557a1.965 1.965 0 00-2.466 0l-4.524 3.72L34.08 63.8a1.964 1.964 0 00-2.465 0L13.914 79.372c-3.562 2.897-5.919 2.362-7.447 2.194C2.52 78.327 0 73.412 0 67.914V29.401c0-9.742 7.909-17.652 17.653-17.652h10.928l-.02.044-.368 1.074-.115.369-.496 2.2-.068.386-.218 2.203-.029.605-.004.212.021 1.01.049.592.123.927.157.834.185.768.241.832.626 1.761.206.528 1.089 2.301.384.707 1.26 2.162.482.779 1.757 2.589.254.342 2.287 2.977.739.916 2.611 3.053.537.587 2.152 2.316.853.883 1.409 1.4-.283.236-.176.159c-.478.446-.933.919-1.358 1.418-.204.241-.399.489-.584.746a9.577 9.577 0 00-.754 1.232 7.453 7.453 0 00-.302.685 6.319 6.319 0 00-.409 1.861l-.008.55c.02.776.178 1.542.467 2.263.292.73.719 1.399 1.258 1.973.391.417.837.78 1.326 1.079.416.255.86.465 1.321.625a7.4 7.4 0 003.119.354h.006a7.029 7.029 0 002.571-.763c.346-.183.675-.395.983-.636a6.304 6.304 0 001.981-2.635 6.566 6.566 0 00.469-2.546l-.025-.455a6.414 6.414 0 00-.427-1.753 7.136 7.136 0 00-.33-.716 9.74 9.74 0 00-.776-1.229 12.31 12.31 0 00-.41-.525 16.713 16.713 0 00-1.516-1.587l-.381-.325.646-.637 2.773-2.896.959-1.054 1.491-1.677.97-1.134 1.383-1.685.937-1.177 1.375-1.838.694-.952.984-1.472.821-1.255 1.545-2.691.884-1.766.026-.054.676-1.638a.56.56 0 00.023-.065l.729-2.273.077-.332.316-1.809.061-.49.019-.3.022-1.133-.006-.211-.058-1.015-.072-.788-.359-2.272c-.006-.03-.011-.06-.021-.09l-.461-1.68-.159-.467-.207-.517zm5.207 48.027c-2.283.033-4.151 1.901-4.183 4.183a4.264 4.264 0 004.183 4.181c2.281-.033 4.148-1.9 4.183-4.181a4.264 4.264 0 00-4.183-4.183z" fill="#24175b" fill-opacity=".35"/><path d="M207.646 74.498l-12.457-26.666c-1.04-2.222-1.66-3.034-2.701-3.976l-1.012-.913c-.808-.783-1.338-1.508-1.338-2.369 0-1.233.976-2.271 2.755-2.271h10.815c1.697 0 2.755.883 2.755 2.201 0 .736-.338 1.288-.766 1.829-.507.643-1.168 1.269-1.168 2.412 0 .716.209 1.43.611 2.342l7.434 17.408 6.668-16.97c.41-1.129.69-2.123.69-2.919 0-1.239-.673-1.744-1.192-2.298-.452-.481-.813-.989-.813-1.804 0-1.331 1.083-2.201 2.541-2.201h6.66c1.867 0 2.755.966 2.755 2.201 0 .79-.455 1.523-1.351 2.313l-.942.774c-1.312 1.072-1.919 2.622-2.608 4.226l-10.099 24.329c-1.193 2.844-2.97 6.793-5.683 10.033-2.757 3.29-6.474 5.849-11.508 5.849-4.215 0-6.767-2.013-6.767-4.913 0-2.657 1.965-4.774 4.547-4.774 1.414 0 2.149.668 2.895 1.355.617.566 1.243 1.148 2.477 1.148 1.144 0 2.21-.484 3.177-1.266 1.476-1.194 2.712-3.073 3.625-5.08zM41.294 84.062l-.738.621a3.875 3.875 0 01-2.423.882h-20.48a17.58 17.58 0 01-11.186-3.999c1.528.168 3.885.703 7.447-2.194L31.615 63.8a1.964 1.964 0 012.465 0l12.741 10.477 4.524-3.72a1.965 1.965 0 012.466 0l13.925 11.449c1.68 1.271 3.855 2.775 8.869 3.559h-9.264a3.942 3.942 0 01-2.274-.757l-.162-.125-.688-.572a1.434 1.434 0 00-.182-.184c-.779-.653-10.645-8.826-10.645-8.826a1.158 1.158 0 00-1.484.003s.024.029-10.473 8.823a1.37 1.37 0 00-.139.135zm239.55-9.659c5.607 0 10.201-1.921 13.784-5.755C298.209 64.82 300 60.212 300 54.824c0-5.259-1.702-9.58-5.093-12.966-3.391-3.385-7.79-5.085-13.204-5.085-5.701 0-10.363 1.851-13.994 5.539-3.632 3.691-5.449 8.162-5.449 13.415 0 5.205 1.734 9.618 5.195 13.237 3.464 3.622 7.925 5.439 13.389 5.439zm-47.413-.417c3.242 0 5.547-2.183 5.547-5.33 0-3.073-2.381-5.26-5.547-5.26-3.318 0-5.692 2.191-5.692 5.26 0 3.144 2.376 5.33 5.692 5.33zm11.544-4.988l.79-.834c.938-.912 1.24-1.833 1.24-4.373V48.776c0-2.196-.298-3.176-1.23-4.015l-.928-.832c-.91-.803-1.209-1.302-1.209-2.104 0-1.14.884-2.075 2.306-2.399l6.303-1.53c.603-.146 1.283-.288 1.81-.288.725 0 1.319.238 1.735.652.417.415.662 1.011.662 1.758v23.773c0 2.397.291 3.512 1.292 4.354a.478.478 0 01.045.045l.705.821c.885.861 1.252 1.432 1.252 2.217 0 1.401-1.056 2.202-2.754 2.202h-10.672c-1.618 0-2.684-.796-2.684-2.202 0-.789.368-1.365 1.337-2.23zm-71.334.001l.789-.835c.939-.912 1.241-1.833 1.241-4.373v-31.35c0-2.126-.225-3.17-1.22-4.008l-.953-.922c-.821-.798-1.121-1.293-1.121-2.091 0-1.142.888-2.073 2.232-2.399l6.231-1.529c.604-.146 1.283-.289 1.811-.289.72 0 1.329.217 1.764.628.436.413.704 1.026.704 1.852v40.108c0 2.403.299 3.454 1.304 4.363l.804.851c.891.867 1.188 1.434 1.188 2.223 0 .582-.178 1.051-.494 1.409-.446.504-1.193.793-2.19.793H175.06c-.996 0-1.744-.289-2.191-.793-.315-.358-.492-.827-.492-1.409 0-.79.293-1.362 1.264-2.229zm-29.058-16.145v10.798c0 1.627.322 3.129 1.662 4.366l.867.841c.971.942 1.266 1.506 1.266 2.369 0 1.319-1.057 2.202-2.755 2.202h-12.032c-1.698 0-2.755-.883-2.755-2.202 0-1.024.301-1.509 1.271-2.374l.864-.839c1.005-.91 1.661-2.151 1.661-4.363V34.805c0-1.758-.389-3.196-1.662-4.367l-.868-.841c-.892-.866-1.266-1.435-1.266-2.3 0-1.398 1.061-2.271 2.755-2.271h32.23c1.231 0 2.314.274 3.005.952.481.472.788 1.137.823 2.06l.502 7.44c.05.93-.225 1.706-.761 2.184-.37.329-.867.526-1.493.526-.789 0-1.394-.298-1.934-.812-.485-.462-.917-1.111-1.405-1.875-1.177-1.881-1.725-2.558-2.98-3.438-1.746-1.288-4.407-1.731-9.437-1.731-2.903 0-4.735.127-5.889.424-.746.193-1.177.443-1.407.81-.237.376-.262.851-.262 1.431v14.62h7.558c1.808 0 3.08-.327 4.554-2.341l.008-.012c.591-.752 1.019-1.306 1.426-1.673.473-.429.929-.632 1.532-.632a2.212 2.212 0 012.182 2.203v10.079c0 1.35-1.052 2.271-2.182 2.271-.562 0-1.018-.2-1.493-.62-.409-.359-.838-.898-1.394-1.617-1.613-2.088-2.752-2.421-4.633-2.421h-7.558zm127.7-.255c0-3.616.788-6.215 2.42-7.778 1.613-1.543 3.346-2.324 5.209-2.324 2.563 0 4.873 1.435 6.956 4.255 2.128 2.884 3.181 6.781 3.181 11.686 0 3.62-.79 6.243-2.425 7.851-1.611 1.586-3.343 2.39-5.205 2.39-2.563 0-4.871-1.446-6.955-4.288-2.129-2.908-3.181-6.841-3.181-11.792zM71.722 59.776c-2.283.033-4.151 1.901-4.183 4.183a4.264 4.264 0 004.183 4.181c2.281-.033 4.148-1.9 4.183-4.181a4.264 4.264 0 00-4.183-4.183zm-27.037-12.67l-1.409-1.4-.853-.883-2.152-2.316-.537-.587-2.611-3.053-.739-.916-2.287-2.977-.254-.342-1.757-2.589-.482-.779-1.26-2.162-.384-.707-1.089-2.301-.206-.528-.626-1.761-.241-.832-.185-.768-.157-.834-.123-.927-.049-.592-.021-1.01.004-.212.029-.605.218-2.203.068-.386.496-2.2.115-.369.368-1.074.119-.278.586-1.288.406-.767.567-.934.564-.832.402-.528.464-.558.509-.561.437-.439 1.064-.936.777-.636a.804.804 0 01.058-.044l.92-.622.731-.466 1.388-.731c.021-.013.045-.023.067-.034l1.968-.817.182-.068 1.75-.512.739-.166.998-.2.663-.101 1.016-.126.693-.062 1.375-.073.539-.005 1.021.021.265.015 1.478.122 1.956.276.226.048 1.932.48.568.17.63.217.768.291.607.257.892.421.562.288 1.01.594.377.231 1.377 1.006.395.343.961.875.047.047.815.874.28.316.956 1.27.195.303.759 1.281.228.44.427.955.447 1.116.159.467.461 1.68c.009.03.016.06.021.09l.359 2.272.072.788.058 1.015.006.211-.022 1.133-.019.3-.061.49-.316 1.809-.077.332-.729 2.273a.56.56 0 01-.023.065l-.676 1.638-.026.054-.884 1.766-1.545 2.691-.821 1.255-.984 1.472-.694.952-1.375 1.838-.937 1.177-1.383 1.685-.97 1.134-1.491 1.677-.959 1.054-2.773 2.896-.646.637.381.325a16.84 16.84 0 011.516 1.587c.141.171.278.346.41.525.289.39.548.8.776 1.229.123.231.233.471.33.716.222.56.371 1.154.427 1.753l.025.455a6.566 6.566 0 01-.469 2.546 6.304 6.304 0 01-1.981 2.635 6.603 6.603 0 01-.983.636c-.8.417-1.673.676-2.571.763h-.006a7.4 7.4 0 01-3.119-.354 6.792 6.792 0 01-1.321-.625 6.433 6.433 0 01-1.326-1.079 6.302 6.302 0 01-1.258-1.973 6.534 6.534 0 01-.467-2.263l.008-.55a6.319 6.319 0 01.409-1.861c.089-.234.19-.462.302-.685a9.69 9.69 0 01.754-1.232c.184-.256.38-.505.584-.746.425-.499.88-.972 1.358-1.418l.176-.159.283-.236zm206.508-14.062c3.249 0 5.547-1.829 5.547-4.983 0-3.079-2.296-4.912-5.547-4.912-3.327 0-5.621 1.834-5.621 4.912s2.295 4.983 5.621 4.983z" fill="#24175b"/><path d="M40.556 84.683l11.35-9.579a1.158 1.158 0 011.484-.003l11.515 9.582c.7.569 1.575.881 2.478.882H38.092c.899 0 1.77-.311 2.464-.882zm7.064-34.195l.112.033c.036.017.066.043.098.065l.093.082c.229.211.452.432.666.659.151.161.298.327.439.498.18.217.348.444.501.68.066.105.127.21.185.32.05.095.095.194.134.293a1.9 1.9 0 01.138.544l-.003.35c-.047.64-.4 1.22-.947 1.555-.35.212-.744.342-1.151.379l-.432.013-.365-.032a2.785 2.785 0 01-.502-.122 2.446 2.446 0 01-.475-.222l-.285-.209a1.957 1.957 0 01-.649-1.112 2.781 2.781 0 01-.033-.22l-.011-.334c.006-.09.02-.18.04-.269.049-.194.121-.383.212-.563.116-.225.25-.442.398-.647.247-.334.514-.652.801-.952.184-.194.373-.383.57-.565l.14-.126c.097-.065.098-.065.209-.098h.117zm-.717-46.517l.046-.004v39.007l-.098-.179a109.133 109.133 0 01-3.583-7.262 77.884 77.884 0 01-2.432-6.088 48 48 0 01-1.465-5.013c-.309-1.348-.545-2.715-.642-4.096a19.717 19.717 0 01-.034-1.77c.009-.514.03-1.027.063-1.541.051-.807.133-1.612.251-2.412.094-.629.21-1.256.353-1.875.114-.493.246-.982.397-1.463.217-.695.478-1.374.782-2.036.111-.239.23-.476.355-.709.753-1.395 1.775-2.68 3.113-3.54a6.513 6.513 0 012.894-1.019zm5.059.098l2.624.749a16.025 16.025 0 013.46 1.763 13.862 13.862 0 013.721 3.712 14.056 14.056 0 011.442 2.778 16.308 16.308 0 011.003 4.499c.035.403.054.807.062 1.212.01.375.007.752-.023 1.127-.074.84-.232 1.67-.471 2.479-.193.662-.42 1.313-.68 1.951a28.31 28.31 0 01-1.08 2.332c-.875 1.689-1.882 3.306-2.959 4.868a75.697 75.697 0 01-4.267 5.568 105.362 105.362 0 01-5.118 5.674 108.923 108.923 0 003.369-6.894 85.38 85.38 0 001.638-3.947 62.424 62.424 0 001.526-4.438c.336-1.123.632-2.257.877-3.404.209-.983.374-1.977.476-2.977.086-.834.117-1.673.096-2.51a35.718 35.718 0 00-.057-1.535c-.123-2.057-.435-4.108-1.035-6.081a17.87 17.87 0 00-.828-2.192c-.768-1.673-1.839-3.237-3.29-4.378l-.486-.356z" fill="#fff"/></svg>