<?xml version="1.0" encoding="UTF-8"?>
<!-- Generated by Pixelmator Pro 3.4.3 -->
<svg width="260" height="72" viewBox="0 0 260 72" xmlns="http://www.w3.org/2000/svg">
    <g id="Symbols">
        <g id="Artboard">
            <g id="Group">
                <path id="Path" fill="#000000" stroke="none" d="M 28.240627 16.909088 L 25.551903 32.448292 L 17.215054 32.448292 L 19.9128 16.909088 L 7.470684 16.909088 L -0 60 L 12.442117 60 L 15.374451 43.03743 L 23.7113 43.03743 L 20.769943 60 L 33.239128 60 L 40.709812 16.909088 Z"/>
                <path id="Shape" fill="#000000" stroke="none" d="M 74.396294 18.170395 C 73.397362 17.432671 72.240494 16.944557 71.020012 16.745834 C 69.488113 16.47781 67.935486 16.350266 66.380974 16.364746 L 56.108829 16.364746 C 54.524769 16.354328 52.942757 16.481827 51.380241 16.745834 C 50.020351 16.974022 48.714386 17.45713 47.529305 18.170395 C 46.392036 18.876381 45.437248 19.846859 44.744095 21.001366 C 43.921982 22.440216 43.372238 24.021927 43.123119 25.665207 L 38.770668 50.871735 C 38.461273 52.456364 38.461273 54.087051 38.770668 55.67168 C 39.002983 56.819813 39.600758 57.858978 40.472244 58.629684 C 41.435997 59.401337 42.575211 59.916058 43.785839 60.126831 C 45.357086 60.420475 46.952576 60.560246 48.550251 60.544216 L 58.777618 60.544216 C 60.41964 60.555645 62.059292 60.415943 63.676365 60.126831 C 65.04541 59.881561 66.355553 59.373394 67.536255 58.629684 C 68.682243 57.880424 69.636711 56.866741 70.321472 55.67168 C 71.139389 54.184513 71.679779 52.557354 71.915581 50.871735 L 76.268028 25.665207 C 76.623253 24.131424 76.623253 22.535149 76.268028 21.001366 C 75.959175 19.879101 75.303116 18.886826 74.396294 18.170395 L 74.396294 18.170395 Z M 59.753788 49.447174 L 51.362328 49.447174 L 55.195354 27.452713 L 63.586811 27.452713 L 59.753788 49.447174 Z"/>
                <path id="path1" fill="#000000" stroke="none" d="M 78.705635 27.833672 L 88.367256 27.833672 L 82.806419 60 L 95.225929 60 L 100.795776 27.833672 L 110.466415 27.833672 L 112.359077 16.909088 L 80.598305 16.909088 Z"/>
                <path id="path2" fill="#000000" stroke="none" d="M 153.44281 16.909088 L 145.095413 40.580532 L 145.068436 16.909088 L 135.26384 16.909088 L 127.141319 40.517071 L 126.988403 16.909088 L 114.530273 16.909088 L 116.877975 60 L 127.99585 60 L 136.334244 37.407417 L 136.9729 60 L 147.730972 60 L 165.010437 16.909088 Z"/>
                <path id="path3" fill="#000000" stroke="none" d="M 223.269775 18.860085 C 222.295242 18.083176 221.145798 17.560093 219.923019 17.337059 C 218.382248 17.033535 216.81456 16.890755 215.244751 16.910973 L 194.723373 16.910973 L 187.265137 60 L 199.671539 60 L 202.208588 45.259254 L 203.917953 45.259254 L 208.650208 60 L 222.244156 60 L 216.045456 43.446125 L 216.378342 43.446125 C 217.27478 43.164646 218.142426 42.797325 218.969376 42.349182 C 219.771423 41.923317 220.490677 41.355175 221.09259 40.672039 C 221.724609 39.947186 222.240616 39.12748 222.622025 38.242443 C 223.064651 37.207409 223.387665 36.1245 223.584656 35.015072 L 225.015137 26.638412 C 225.342911 25.059952 225.342911 23.430214 225.015137 21.851753 C 224.762238 20.69352 224.151123 19.646034 223.269775 18.860085 L 223.269775 18.860085 Z M 212.347824 29.131466 L 211.556122 33.809341 C 211.478973 34.0989 211.376617 34.381027 211.250244 34.652447 C 211.128647 34.897449 210.95694 35.113724 210.746429 35.287041 C 210.523422 35.454716 210.274033 35.583427 210.008698 35.667801 C 209.71759 35.759716 209.414093 35.805588 209.109039 35.803837 L 203.881973 35.803837 L 205.348434 27.12796 L 210.575485 27.12796 C 210.881042 27.11869 211.185745 27.164749 211.475159 27.263943 C 211.698334 27.344646 211.898926 27.478363 212.059937 27.653767 C 212.210251 27.82872 212.30986 28.042004 212.347824 28.270229 C 212.396683 28.555199 212.396683 28.846497 212.347824 29.131466 L 212.347824 29.131466 Z"/>
                <path id="path4" fill="#000000" stroke="none" d="M 258.264709 26.972401 L 260 16.909088 L 233.210114 16.909088 L 225.803757 60 L 253.076675 60 L 254.803024 49.936691 L 239.865097 49.936691 L 241.108429 42.729187 L 252.531036 42.729187 L 254.141113 33.436489 L 242.718506 33.436489 L 243.809784 26.972401 Z"/>
                <path id="path5" fill="#000000" stroke="none" d="M 189.979126 20.751881 L 179.670761 23.178947 L 188.660507 0 L 161.753647 35.115791 L 174.592316 32.553383 L 162.484238 56.499249 L 169.487152 54.902256 L 162.404053 72 L 184.651215 47.666164 L 176.445511 49.587971 Z"/>
            </g>
        </g>
    </g>
</svg>
