<?xml version="1.0" encoding="utf-8"?>
<!-- Generator: Adobe Illustrator 21.0.0, SVG Export Plug-In . SVG Version: 6.00 Build 0)  -->
<svg version="1.1" id="Layer_1" xmlns="http://www.w3.org/2000/svg" xmlns:xlink="http://www.w3.org/1999/xlink" x="0px" y="0px"
	 width="860.8px" height="140.7px" viewBox="0 0 860.8 140.7" style="enable-background:new 0 0 860.8 140.7;" xml:space="preserve"
	>
<style type="text/css">
	.st0{fill:#111111;}
</style>
<g>
	<g>
		<g>
			<g>
				<path class="st0" d="M70.4,0C31.5,0,0,31.5,0,70.4s31.5,70.4,70.4,70.4c38.9,0,70.4-31.5,70.4-70.4S109.2,0,70.4,0z M49.5,106.7
					H26.3V89.2l23.3-6.1V106.7z M82,106.7H58.7V28.1L82,21.1V106.7z M114.5,106.7H91.2V54.2l23.3-7V106.7z"/>
			</g>
		</g>
		<g>
			<path class="st0" d="M190.1,84.7h-4.5v23.5H168V37.4h22.8c17.2,0,27.8,7.7,27.8,23.1C218.6,76.5,207.2,84.7,190.1,84.7z
				 M189.8,50.6h-4.4v20.8h4.1c7.8,0,12.1-3.4,12.1-10.7C201.5,54,197.5,50.6,189.8,50.6z"/>
			<path class="st0" d="M245.7,109.2c-13.8,0-24-9.9-24-26s10.2-26.2,24.1-26.2c13.9,0,24.2,10,24.2,26.1S259.6,109.2,245.7,109.2z
				 M245.8,69.6c-5.9,0-9.1,5.2-9.1,13.4c0,8.1,3.3,13.6,9.1,13.6c5.9,0,9.2-5.4,9.2-13.5C255,75,251.8,69.6,245.8,69.6z"/>
			<path class="st0" d="M352.8,108.1V37.4h44.1v14H370v12.9h20.5v14.5H370v15.3h27.8v14H352.8z"/>
			<path class="st0" d="M432.9,108.3h-15.5l-17.1-49.2l15-1.9l11,31.8l9.9-31.1h14.2L432.9,108.3z"/>
			<path class="st0" d="M498.1,86.9H468c0.8,7.9,5.5,11,12.3,11c5.5,0,6.9-1.2,12.4-4.4l4.8,10c-5.4,3.5-11.3,5.6-19.2,5.6
				c-15.1,0-25.8-8-25.8-25.9c0-16.4,10-26.3,23.7-26.3c15.4,0,22.2,11.5,22.2,26C498.4,84.5,498.3,86.1,498.1,86.9z M475.8,66.9
				c-4.3,0-7.4,3.8-7.9,11.5h15.8C483.2,70.8,480.5,66.9,475.8,66.9z"/>
			<path class="st0" d="M521.9,80.3v27.9h-15.2V57.9h15.2v9.9c3.1-5.7,7.3-9.6,14.7-10.1l0.1,13.3C529.2,71.6,525.7,76.2,521.9,80.3
				z"/>
			<path class="st0" d="M574.5,109.2c-4.5,13.1-10.7,17.6-21.6,17.6c-3.1,0-4.4-0.3-5.8-0.6v-11.6c1.6,0.5,1.2,0,4.2,0
				c3.5,0,6.6-1.3,8.2-4.8l0.6-1.5l-18.2-49.1l15-1.9l11.4,31.7l10-30.9h14.1L574.5,109.2z"/>
			<path class="st0" d="M654.8,108.1h-13.9l-8.2-28.7l-8.1,28.7h-14l-13.7-49l14.3-1.9l8.5,30l7.9-29.3H639l8.8,29.2l7.5-29.2h13.5
				L654.8,108.1z"/>
			<path class="st0" d="M773.4,86.9h-30.1c0.8,7.9,5.5,11,12.3,11c5.5,0,6.9-1.2,12.4-4.4l4.8,10c-5.4,3.5-11.3,5.6-19.2,5.6
				c-15.1,0-25.8-8-25.8-25.9c0-16.4,10-26.3,23.7-26.3c15.4,0,22.2,11.5,22.2,26C773.7,84.5,773.6,86.1,773.4,86.9z M751,66.9
				c-4.3,0-7.4,3.8-7.9,11.5h15.8C758.4,70.8,755.7,66.9,751,66.9z"/>
			<path class="st0" d="M796.3,80.3v27.9h-15.2V57.9h15.2V67c3.1-5.7,7.3-8.8,14.7-9.3l0.1,13.3C803.6,71.6,800.1,76.2,796.3,80.3z"
				/>
			<path class="st0" d="M860.5,86.9h-30.1c0.8,7.9,5.5,11,12.3,11c5.5,0,6.9-1.2,12.4-4.4l4.8,10c-5.4,3.5-11.3,5.6-19.2,5.6
				c-15.1,0-25.8-8-25.8-25.9c0-16.4,10-26.3,23.7-26.3c15.4,0,22.2,11.5,22.2,26C860.8,84.5,860.7,86.1,860.5,86.9z M838.1,66.9
				c-4.3,0-7.4,3.8-7.9,11.5H846C845.5,70.8,842.9,66.9,838.1,66.9z"/>
			<rect x="303.7" y="36.2" class="st0" width="15.6" height="71.9"/>
			<rect x="278.5" y="36.2" class="st0" width="15.6" height="71.9"/>
			<path class="st0" d="M676,36.2v71.9h15.5v-33c2.8-2.8,5.5-4.5,8.5-4.5c3.7,0,5.1,2.5,5.1,6v31.5h15.6V72.5
				c0-9.7-4.9-15.6-14.2-15.6c-6.1,0-10.8,3.2-15,7.3V36.2H676z"/>
		</g>
	</g>
</g>
</svg>
