<?xml version="1.0" encoding="UTF-8"?>
<!-- Generated by Pixelmator Pro 3.4.3 -->
<svg width="619" height="173" viewBox="0 0 619 173" xmlns="http://www.w3.org/2000/svg">
    <g id="Group">
        <path id="Path" fill="#000000" stroke="none" d="M 207.580002 117.800003 L 207.580002 54.57 L 229.630005 54.57 C 236.038666 54.57 240.538666 55.239334 243.130005 56.578003 C 245.750671 57.888 247.716003 59.753667 249.026001 62.175003 C 250.364665 64.596334 251.033997 67.644 251.033997 71.318001 C 251.033997 78.384666 248.75533 83.768 244.197998 87.468002 C 239.669332 91.17067 233.58933 93.022003 225.957993 93.022003 L 220.488998 93.022003 L 220.488998 117.802002 Z M 220.479996 84.349998 L 223.042999 84.349998 C 228.056335 84.349998 231.72967 83.196332 234.063004 80.889 C 236.426997 78.553668 237.608994 75.819336 237.608994 72.686005 C 237.608994 70.920003 237.238663 69.325002 236.498001 67.901001 C 235.757329 66.448334 234.603663 65.309001 233.037003 64.483002 C 231.498998 63.657003 229.020996 63.244003 225.602997 63.244003 L 220.475998 63.244003 Z M 260.679993 54.599998 L 273.839996 54.599998 L 273.839996 93.349998 C 273.839996 100.356667 275.021993 105 277.385986 107.279999 C 279.778666 109.558665 282.869008 110.697998 286.657013 110.697998 C 290.388336 110.697998 293.350667 109.572998 295.544006 107.322998 C 297.766012 105.072998 298.877014 100.729665 298.877014 94.292999 L 298.877014 54.602997 L 310.326996 54.602997 L 310.326996 93.443001 C 310.326996 100.763003 309.401326 106.019671 307.549988 109.213005 C 305.727336 112.374336 303.078339 114.866669 299.602997 116.690002 C 296.128326 118.51267 291.728333 119.424004 286.403015 119.424004 C 281.162333 119.424004 276.662333 118.583669 272.903015 116.903 C 269.143005 115.194336 266.166667 112.67367 263.973999 109.341003 C 261.78066 105.97967 260.68399 100.639669 260.68399 93.320999 Z M 322.079987 117.300003 L 322.079987 106.450005 C 326.950653 108.500669 330.580658 109.725334 332.970001 110.124001 C 335.391327 110.522667 337.612996 110.722 339.63501 110.722 C 343.281006 110.722 346.001007 109.896001 347.795013 108.244003 C 349.588999 106.592 350.486328 104.612333 350.487 102.305 C 350.487 100.538999 350.002665 98.944 349.033997 97.520004 C 348.065328 96.124003 345.615662 94.315336 341.684998 92.094002 L 337.454987 89.744003 C 331.416331 86.35467 327.329671 83.22167 325.195007 80.345001 C 323.030334 77.468333 321.947998 74.135666 321.947998 70.347 C 321.947998 65.590332 323.74233 61.516998 327.330994 58.126999 C 330.948324 54.737666 336.131663 53.042999 342.881012 53.042999 C 347.922333 53.042999 353.605662 53.769666 359.931 55.223 L 359.931 65.353004 C 353.493663 62.931002 348.38033 61.720001 344.591003 61.720001 C 341.457662 61.720001 339.064992 62.418002 337.412994 63.814003 C 335.789663 65.181333 334.977997 66.833333 334.977997 68.770004 C 334.977997 70.251338 335.462331 71.63267 336.431 72.914001 C 337.371002 74.195999 339.806335 75.947665 343.737 78.168999 L 348.265991 80.690002 C 355.185994 84.592 359.599335 87.982 361.506012 90.860001 C 363.385997 93.765335 364.325989 97.02667 364.325989 100.644005 C 364.325989 105.828 362.360657 110.257998 358.429993 113.933998 C 354.527995 117.607999 348.304667 119.445 339.76001 119.445 C 334.690002 119.445 328.793335 118.732999 322.070007 117.308998 Z M 375.679993 117.800003 L 375.679993 54.57 L 388.839996 54.57 L 388.839996 80.25 L 414.98999 80.25 L 414.98999 54.57 L 428.149994 54.57 L 428.149994 117.800003 L 414.98999 117.800003 L 414.98999 88.959999 L 388.839996 88.959999 L 388.839996 117.800003 Z M 444.079987 117.800003 L 444.079987 54.57 L 466.130005 54.57 C 472.538676 54.57 477.038676 55.239334 479.630005 56.578003 C 482.250671 57.888 484.216003 59.753667 485.526001 62.175003 C 486.864665 64.596334 487.533997 67.644 487.533997 71.318001 C 487.533997 78.384666 485.25533 83.768 480.697998 87.468002 C 476.169332 91.17067 470.089335 93.022003 462.458008 93.022003 L 456.989014 93.022003 L 456.989014 117.802002 Z M 456.980011 84.349998 L 459.542999 84.349998 C 464.556325 84.349998 468.229655 83.196332 470.562988 80.889 C 472.927002 78.553668 474.109009 75.819336 474.109009 72.686005 C 474.109009 70.920003 473.738668 69.325002 472.997986 67.901001 C 472.257324 66.448334 471.103658 65.309001 469.536987 64.483002 C 467.999003 63.657003 465.521006 63.244003 462.102997 63.244003 L 456.976013 63.244003 Z M 490.779999 117.800003 L 515.390015 54.57 L 528.549988 54.57 L 553.159973 117.800003 L 539.659973 117.800003 L 533.080017 100.919998 L 506.929993 100.919998 L 500.350006 117.800003 Z M 510.179993 92.510002 L 529.830017 92.510002 L 520.002991 67.300003 Z M 562.179993 117.800003 L 562.179993 54.57 L 589.400024 54.57 C 596.693359 54.57 602.360026 55.737666 606.400024 58.072998 C 610.473348 60.40833 613.706014 63.854998 616.098022 68.413002 C 618.519328 72.941668 619.72998 78.425001 619.72998 84.862999 C 619.72998 91.157667 618.576314 96.784335 616.268982 101.743004 C 613.990336 106.699003 610.657674 110.615669 606.270996 113.493004 C 601.884318 116.369667 595.874329 117.807999 588.241028 117.807999 Z M 575.340027 108.828003 L 585.166992 108.828003 C 590.29366 108.828003 594.210327 108.030337 596.916992 106.435005 C 599.651652 104.839668 601.801982 102.148 603.367981 98.360001 C 604.963318 94.543335 605.760986 90.300003 605.760986 85.630005 C 605.760986 81.158005 604.991984 77.198003 603.453979 73.75 C 601.915975 70.303335 599.779643 67.697001 597.044983 65.931 C 594.33901 64.136332 589.75234 63.238998 583.284973 63.238998 L 575.338013 63.238998 Z"/>
    </g>
    <g id="g1">
        <path id="path1" fill="#2d2c2c" stroke="none" d="M 86.763672 172.851563 C 38.841187 172.851563 -0.007813 134.002579 -0.007813 86.080078 C -0.007813 38.157578 38.841187 -0.691406 86.763672 -0.691406 C 134.686172 -0.691406 173.535156 38.157578 173.535156 86.080078 C 173.535156 134.002579 134.686172 172.851563 86.763672 172.851563 Z M 86.726563 143.222656 C 95.082207 143.212616 102.015251 136.930588 102.625 128.818359 L 70.814453 128.818359 C 71.424545 136.935226 78.366127 143.218933 86.726563 143.222656 Z M 38.025391 125.748047 C 38.433018 125.745918 38.841362 125.71489 39.244141 125.652344 L 134.212891 125.652344 C 134.607483 125.713676 135.006927 125.744705 135.40625 125.748047 C 135.813065 125.745804 136.219116 125.714783 136.621094 125.652344 L 137.082031 125.652344 L 137.082031 125.566406 C 140.875061 124.77507 143.592865 121.44043 143.597656 117.574219 C 143.594086 113.794395 140.995224 110.509727 137.310547 109.630859 C 128.017899 105.224991 123.828247 99.023392 121.921875 94.119141 L 121.921875 64.427734 L 121.876953 64.427734 C 121.315895 47.514999 109.833557 33.197205 94.078125 29.763672 C 94.179428 29.271515 94.231819 28.768478 94.232422 28.265625 C 94.23275 26.318344 93.473373 24.451294 92.121094 23.074219 C 90.768814 21.697174 88.934082 20.923828 87.021484 20.923828 L 87.011719 20.916016 C 85.099121 20.916016 83.266342 21.689331 81.914063 23.066406 C 80.561768 24.443436 79.802414 26.310562 79.802734 28.257813 C 79.805893 28.772858 79.86203 29.286026 79.970703 29.789063 C 64.223595 33.220352 52.743637 47.524422 52.171875 64.427734 L 52.111328 64.427734 L 52.111328 92.912109 C 50.452888 97.943443 46.381371 104.799408 36.398438 109.570313 C 32.581009 110.342102 29.835777 113.68808 29.832031 117.574219 C 29.83534 121.515533 32.657986 124.893616 36.542969 125.607422 L 36.542969 125.652344 L 36.835938 125.652344 C 37.229687 125.713562 37.626907 125.744553 38.025391 125.748047 Z"/>
    </g>
</svg>
